<?xml version="1.0" encoding="utf-8"?>
<!-- Generator: Adobe Illustrator 21.1.0, SVG Export Plug-In . SVG Version: 6.00 Build 0)  -->
<svg version="1.1" id="Layer_1" xmlns="http://www.w3.org/2000/svg" xmlns:xlink="http://www.w3.org/1999/xlink" x="0px" y="0px"
	 viewBox="0 0 150 150" style="enable-background:new 0 0 150 150;" xml:space="preserve">
<style type="text/css">
	.st0{fill:#10112E;}
	.st1{fill:#991B1E;}
	.st2{fill:#FFFFFF;}
	.st3{fill:#0B3147;}
</style>
<g>
	<g>
		<path class="st0" d="M75-0.1c7.3,14,34.1,25.3,65.8,26.4c2.1,0.1,4.1,0.1,6.2,0.1c0.7,19.1-3.9,40.5-14.4,61.5
			c-13.7,27.3-34.8,48.8-57.6,61.3c-22.8-12.5-43.9-34-57.6-61.3C6.9,66.9,2.3,45.5,3,26.4c2,0,4.1,0,6.2-0.1
			C40.9,25.2,67.7,14,75-0.1L75-0.1z"/>
	</g>
	<g>
		<path class="st1" d="M74.8,144.8c-21.2-12.7-40.6-33.3-53.5-58.9C11.8,67,7.1,47.7,6.8,30c2.1,0,4.2,0,6.3-0.1
			c29.2-1,53.9-11,61.8-23.8c8.7,13.1,34.4,23.3,64.6,24.3c1.2,0,2.5,0.1,3.7,0.1c-0.4,17.4-5.1,36.4-14.5,55
			C115.7,111.5,96.2,132.1,74.8,144.8L74.8,144.8z"/>
	</g>
	<g>
		<path class="st0" d="M75,36.1c4.8,0,9.5,0.9,13.6,2.5l0,0V21.2l0,0c-6.1-3.4-10.9-7.3-13.7-11.6c-2.7,4.3-7.4,8.3-13.5,11.7l0,0
			v17.3l0,0C65.5,37,70.2,36.1,75,36.1L75,36.1z"/>
	</g>
	<g>
		<path class="st0" d="M88.6,91.5C84.5,93.1,79.8,94,75,94c-4.8,0-9.5-0.9-13.6-2.5l0,0V132l0,0c4.4,3.5,8.8,6.6,13.4,9.4
			c4.7-2.8,9.4-6,13.8-9.6l0,0V91.5L88.6,91.5z"/>
	</g>
	<g>
		<path class="st0" d="M115.9,30.5c6.4,1.2,13.3,2,20.4,2.3c1.2,0,2.3,0.1,3.5,0.1c-0.4,16.5-4.9,34.5-13.8,52.3
			c-3,6-6.4,11.7-10.1,17.1l0,0V30.5L115.9,30.5z"/>
	</g>
	<g>
		<path class="st0" d="M34.1,102.5C30.4,97.1,27,91.4,24,85.4c-9-18-13.5-36.3-13.8-53.1c2,0,4,0,6-0.1c6.2-0.2,12.2-0.9,17.9-1.9
			l0,0V102.5L34.1,102.5z"/>
	</g>
	<g>
		<circle class="st2" cx="75.7" cy="65.2" r="26.8"/>
		<path class="st3" d="M75.7,92.6c-15.1,0-27.4-12.3-27.4-27.4c0-15.1,12.3-27.4,27.4-27.4c15.1,0,27.4,12.3,27.4,27.4
			C103.2,80.3,90.9,92.6,75.7,92.6z M75.7,39.1c-14.4,0-26.1,11.7-26.1,26.1c0,14.4,11.7,26.1,26.1,26.1c14.4,0,26.1-11.7,26.1-26.1
			C101.9,50.8,90.1,39.1,75.7,39.1z"/>
	</g>
	<g>
		<g>
			<path class="st0" d="M75.7,42.4c7.1,0,13.5,3.3,17.7,8.5l0,0l-2.7,2l0,0c-3.5-4.3-8.9-7.1-15-7.1c-10.6,0-19.3,8.7-19.3,19.3
				c0,10.6,8.7,19.3,19.3,19.3c6,0,11.4-2.8,15-7.2l0,0l2.6,2.1l0,0c-4.2,5.1-10.5,8.4-17.6,8.4C63.2,87.8,53,77.6,53,65.1
				C53,52.6,63.2,42.4,75.7,42.4L75.7,42.4z"/>
		</g>
	</g>
	<g>
		<g>
			<path class="st0" d="M76.8,49c8.4,0.6,15,7.6,15,16.1c0,0.4,0,0.8,0,1.1l0,0h-3.4h-8.5v10.8v3.6l0,0c-1,0.3-2,0.4-3.1,0.5l0,0
				v-1.7v-1.7V52.4v-2.1V49L76.8,49z M79.8,63.1h8.4l0,0c-0.7-4.7-4-8.5-8.4-10l0,0V63.1L79.8,63.1z M74.6,81.1
				c-8.4-0.6-15-7.6-15-16.1c0-8.5,6.6-15.5,15-16.1l0,0v3.4l0,0C68.1,53,63,58.4,63,65.1c0,6.6,5.1,12.1,11.6,12.6l0,0V81.1
				L74.6,81.1z"/>
		</g>
	</g>
</g>
</svg>
