<svg xmlns="http://www.w3.org/2000/svg" xmlns:xlink="http://www.w3.org/1999/xlink" viewBox="0 0 892 600"><defs><style>.cls-1{fill:none;}.cls-2{clip-path:url(#clip-path);}.cls-3{fill:#d00;}.cls-4{fill:#fff;}.cls-5{fill:#0039a6;}.cls-6{fill:#939598;}</style><clipPath id="clip-path"><path class="cls-1" d="M861.1,6A25,25,0,0,1,886,30.9V569a24.9,24.9,0,0,1-24.9,24.9H30.9A24.82,24.82,0,0,1,6,569.1V30.9A25,25,0,0,1,30.9,6H861.1"/></clipPath></defs><title>Chile</title><g id="Layer_2" data-name="Layer 2"><g class="cls-2"><path id="_4" data-name="4" class="cls-3" d="M900,600H0V0H900Z"/><path id="_3" data-name="3" class="cls-4" d="M300,300H900V0H0Z"/><path id="_2" data-name="2" class="cls-5" d="M300,300H0V0H300Z"/><polygon id="_1" data-name="1" class="cls-4" points="78.67 126.82 122.75 158.85 105.92 210.68 150 178.65 194.08 210.68 177.25 158.85 221.33 126.82 166.84 126.82 150 75 133.16 126.82 78.67 126.82"/></g></g><g id="Layer_1" data-name="Layer 1"><g id="Layer_1-2" data-name="Layer 1"><path class="cls-6" d="M861.1,6A25,25,0,0,1,886,30.9V569a24.9,24.9,0,0,1-24.9,24.9H30.9A24.82,24.82,0,0,1,6,569.1V30.9A25,25,0,0,1,30.9,6H861.1m0-6H30.9A30.86,30.86,0,0,0,0,30.9H0V569a30.88,30.88,0,0,0,30.9,31H861a30.86,30.86,0,0,0,30.9-30.9V30.9A30.71,30.71,0,0,0,861.1,0Z"/></g></g></svg>