<svg id="Layer_2" data-name="Layer 2" xmlns="http://www.w3.org/2000/svg" xmlns:xlink="http://www.w3.org/1999/xlink" viewBox="0 0 892 600"><defs><style>.cls-1{fill:none;}.cls-2{clip-path:url(#clip-path);}.cls-3{fill:#cf142b;}.cls-4{fill:#00247d;}.cls-5{fill:#fc0;}.cls-6{fill:#fff;}.cls-7{fill:#939598;}</style><clipPath id="clip-path"><rect class="cls-1" width="892" height="600" rx="30.93"/></clipPath></defs><title>Venezuela</title><g class="cls-2"><path class="cls-3" d="M-3,0H897V600H-3Z"/><path class="cls-4" d="M-3,0H897V400H-3Z"/><path class="cls-5" d="M-3,0H897V200H-3Z"/><g id="s4"><g id="s2"><g id="s"><g id="f"><g id="t"><path id="o" class="cls-6" d="M482.55,218.11l-11.74,22.08,13.25,7Z"/><path class="cls-6" d="M482.55,218.11,486,242.87,471.17,245Z"/></g><path class="cls-6" d="M503,239.26l-24.62-4.35-2.6,14.78Z"/><path class="cls-6" d="M503,239.26l-22.47,11-6.57-13.48Z"/></g><path class="cls-6" d="M456.13,231l17.37,18,10.79-10.42Z"/><path class="cls-6" d="M456.13,231l24.62,4.34-2.6,14.77Z"/><path class="cls-6" d="M489.17,265.2l-3.48-24.75-14.86,2.09Z"/><path class="cls-6" d="M489.17,265.2l-17.37-18,10.79-10.42Z"/><path class="cls-6" d="M460.22,260.1l22.47-11-6.57-13.48Z"/><path class="cls-6" d="M460.22,260.1,472,238l13.24,7Z"/></g><path class="cls-6" d="M549.45,242.46l-18.58,16.73,10,11.15Z"/><path class="cls-6" d="M549.45,242.46l-5.2,24.46-14.67-3.12Z"/><path class="cls-6" d="M561.4,269.31l-21.65-12.5-7.5,13Z"/><path class="cls-6" d="M561.4,269.31l-24.86,2.62L535,257Z"/><path class="cls-6" d="M520.22,245.54l10.17,22.84,13.7-6.11Z"/><path class="cls-6" d="M520.22,245.54,541.87,258l-7.5,13Z"/><path class="cls-6" d="M539.56,289l5.2-24.46-14.67-3.11Z"/><path class="cls-6" d="M539.56,289,529.4,266.14l13.7-6.1Z"/><path class="cls-6" d="M514.11,274.28,539,271.67l-1.56-14.92Z"/><path class="cls-6" d="M514.11,274.28l18.58-16.72,10,11.14Z"/></g><path class="cls-6" d="M604,288.23l-23.18,9.36,5.62,13.91Z"/><path class="cls-6" d="M604,288.23l-13.25,21.2L578,301.48Z"/><path class="cls-6" d="M606,317.55,590,298.4,578.48,308Z"/><path class="cls-6" d="M606,317.55l-24.26-6.05,3.63-14.56Z"/><path class="cls-6" d="M575.47,281.12l1.75,24.94,15-1.05Z"/><path class="cls-6" d="M575.47,281.12l16.07,19.15-11.49,9.64Z"/><path class="cls-6" d="M578.79,328.56,592,307.35l-12.72-7.94Z"/><path class="cls-6" d="M578.79,328.56l-1.74-24.94,15-1.05Z"/><path class="cls-6" d="M559.9,306l24.26,6,3.63-14.55Z"/><path class="cls-6" d="M559.9,306l23.18-9.36,5.62,13.9Z"/><path class="cls-6" d="M639.59,349.89l-25,.87.53,15Z"/><path class="cls-6" d="M639.59,349.89l-19.7,15.39-9.24-11.82Z"/><path class="cls-6" d="M631.49,378.14l-8.55-23.5-14.1,5.13Z"/><path class="cls-6" d="M631.49,378.14l-20.73-14,8.39-12.44Z"/><path class="cls-6" d="M615.22,333.45l-6.89,24,14.42,4.14Z"/><path class="cls-6" d="M615.22,333.45l8.55,23.49-14.09,5.13Z"/><path class="cls-6" d="M602.12,379.16l19.7-15.39L612.58,352Z"/><path class="cls-6" d="M602.12,379.16l6.89-24,14.41,4.14Z"/><path class="cls-6" d="M592.06,351.55l20.73,14,8.39-12.44Z"/><path class="cls-6" d="M592.06,351.55l25-.88.52,15Z"/></g><path class="cls-6" d="M254.31,349.89,274,365.28l9.24-11.82Z"/><path class="cls-6" d="M254.31,349.89l25,.87-.53,15Z"/><path class="cls-6" d="M278.68,333.45l-8.55,23.49,14.09,5.13Z"/><path class="cls-6" d="M278.68,333.45l6.89,24-14.42,4.14Z"/><path class="cls-6" d="M262.41,378.14l20.73-14-8.39-12.44Z"/><path class="cls-6" d="M262.41,378.14l8.55-23.5,14.1,5.13Z"/><path class="cls-6" d="M301.84,351.55l-25-.88-.52,15Z"/><path class="cls-6" d="M301.84,351.55l-20.73,14-8.39-12.44Z"/><path class="cls-6" d="M291.79,379.16l-6.9-24-14.41,4.14Z"/><path class="cls-6" d="M291.79,379.16l-19.7-15.39L281.32,352Z"/><path class="cls-6" d="M289.91,288.23l13.25,21.2,12.72-7.95Z"/><path class="cls-6" d="M289.91,288.23l23.18,9.36-5.62,13.91Z"/><path class="cls-6" d="M318.43,281.12l-16.07,19.15,11.49,9.64Z"/><path class="cls-6" d="M318.43,281.12l-1.75,24.94-15-1.05Z"/><path class="cls-6" d="M287.86,317.55l24.26-6.05-3.63-14.56Z"/><path class="cls-6" d="M287.86,317.55l16.07-19.15L315.42,308Z"/><path class="cls-6" d="M334,306l-23.18-9.36-5.62,13.9Z"/><path class="cls-6" d="M334,306l-24.26,6-3.62-14.55Z"/><path class="cls-6" d="M315.11,328.56l1.74-24.94-15-1.05Z"/><path class="cls-6" d="M315.11,328.56l-13.25-21.21,12.72-7.94Z"/><path class="cls-6" d="M344.45,242.46l5.2,24.46,14.67-3.12Z"/><path class="cls-6" d="M344.45,242.46,363,259.19l-10,11.15Z"/><path class="cls-6" d="M373.68,245.54,352,258l7.5,13Z"/><path class="cls-6" d="M373.68,245.54l-10.17,22.84-13.7-6.11Z"/><path class="cls-6" d="M332.5,269.31l24.86,2.62L358.93,257Z"/><path class="cls-6" d="M332.5,269.31l21.65-12.5,7.5,13Z"/><path class="cls-6" d="M379.79,274.28l-18.58-16.72-10,11.14Z"/><path class="cls-6" d="M379.79,274.28l-24.86-2.61,1.56-14.92Z"/><path class="cls-6" d="M354.34,289l10.17-22.84L350.8,260Z"/><path class="cls-6" d="M354.34,289l-5.2-24.46,14.67-3.11Z"/><path class="cls-6" d="M411.35,218.11l-3.48,24.76L422.73,245Z"/><path class="cls-6" d="M411.35,218.11l11.74,22.08-13.25,7Z"/><path class="cls-6" d="M437.77,231l-24.62,4.34,2.6,14.77Z"/><path class="cls-6" d="M437.77,231,420.4,249l-10.79-10.42Z"/><path class="cls-6" d="M390.94,239.26l22.47,11L420,236.73Z"/><path class="cls-6" d="M390.94,239.26l24.62-4.35,2.6,14.78Z"/><path class="cls-6" d="M433.68,260.1,421.94,238l-13.24,7Z"/><path class="cls-6" d="M433.68,260.1l-22.47-11,6.57-13.48Z"/><path class="cls-6" d="M404.73,265.2l17.37-18L411.31,236.8Z"/><path class="cls-6" d="M404.73,265.2l3.48-24.75,14.86,2.09Z"/></g><g id="Layer_1" data-name="Layer 1"><path class="cls-7" d="M861.1,6A25,25,0,0,1,886,30.9V569a24.9,24.9,0,0,1-24.9,24.9H30.9A24.82,24.82,0,0,1,6,569.1V30.9A25,25,0,0,1,30.9,6H861.1m0-6H30.9A30.86,30.86,0,0,0,0,30.9H0V569a30.88,30.88,0,0,0,30.9,31H861a30.86,30.86,0,0,0,30.9-30.9V30.9A30.71,30.71,0,0,0,861.1,0Z"/></g><path class="cls-1" d="M31.4,0H868.5a30.88,30.88,0,0,1,31,30.9V569a30.86,30.86,0,0,1-30.9,30.9H31.4A30.71,30.71,0,0,1,.5,569.1V30.9A30.86,30.86,0,0,1,31.4,0Z"/></svg>